Coordinates
nRows=242
nColumns=2
inDegrees=yes
endheader
time	ankle_angle_r	
2.59476	 -5.118652	
2.62802	 -5.131935	
2.66129	 -5.156423	
2.69456	 -5.183129	
2.72782	 -5.192723	
2.76109	 -5.180705	
2.79435	 -5.155637	
2.82762	 -5.130404	
2.86089	 -5.123490	
2.89415	 -5.138095	
2.92742	 -5.152959	
2.96069	 -5.153045	
2.99395	 -5.142888	
3.02722	 -5.132198	
3.06048	 -5.129149	
3.09375	 -5.134520	
3.12702	 -5.138359	
3.16028	 -5.135907	
3.19355	 -5.137836	
3.22681	 -5.153156	
3.26008	 -5.173734	
3.29335	 -5.185103	
3.32661	 -5.183206	
3.35988	 -5.175320	
3.39315	 -5.170742	
3.42641	 -5.171123	
3.45968	 -5.169004	
3.49294	 -5.158032	
3.52621	 -5.143523	
3.55948	 -5.140019	
3.59274	 -5.157333	
3.62601	 -5.187554	
3.65927	 -5.204622	
3.69254	 -5.188807	
3.72581	 -5.153347	
3.75907	 -5.126617	
3.79234	 -5.117878	
3.8256	 -5.119200	
3.85887	 -5.120375	
3.89214	 -5.112505	
3.9254	 -5.093849	
3.95867	 -5.071605	
3.99194	 -5.053315	
4.0252	 -5.043173	
4.05847	 -5.043352	
4.09173	 -5.054559	
4.125	 -5.076075	
4.15827	 -5.099043	
4.19153	 -5.108566	
4.2248	 -5.102623	
4.25806	 -5.092195	
4.29133	 -5.083167	
4.3246	 -5.075056	
4.35786	 -5.067329	
4.39113	 -5.059854	
4.4244	 -5.056170	
4.45766	 -5.060403	
4.49093	 -5.070805	
4.52419	 -5.084415	
4.55746	 -5.097874	
4.59073	 -5.107092	
4.62399	 -5.115727	
4.65726	 -5.128359	
4.69052	 -5.139064	
4.72379	 -5.143180	
4.75706	 -5.148589	
4.79032	 -5.164385	
4.82359	 -5.183703	
4.85685	 -5.189278	
4.89012	 -5.178161	
4.92339	 -5.165951	
4.95665	 -5.168558	
4.98992	 -5.191452	
5.02319	 -5.224808	
5.05645	 -5.248428	
5.08972	 -5.254643	
5.12298	 -5.253446	
5.15625	 -5.252161	
5.18952	 -5.251004	
5.22278	 -5.251852	
5.25605	 -5.253596	
5.28931	 -5.247737	
5.32258	 -5.227047	
5.35585	 -5.193149	
5.38911	 -5.154311	
5.42238	 -5.115637	
5.45565	 -5.076573	
5.48891	 -5.044706	
5.52218	 -5.034935	
5.55544	 -5.046155	
5.58871	 -5.060377	
5.62198	 -5.065987	
5.65524	 -5.064335	
5.68851	 -5.061593	
5.72177	 -5.063473	
5.75504	 -5.069242	
5.78831	 -5.075487	
5.82157	 -5.083279	
5.85484	 -5.090074	
5.8881	 -5.090460	
5.92137	 -5.084437	
5.95464	 -5.074127	
5.9879	 -5.064216	
6.02117	 -5.059955	
6.05444	 -5.060222	
6.0877	 -5.060475	
6.12097	 -5.057285	
6.15423	 -5.051204	
6.1875	 -5.047839	
6.22077	 -5.050107	
6.25403	 -5.054252	
6.2873	 -5.057296	
6.32056	 -5.058851	
6.35383	 -5.058864	
6.3871	 -5.061130	
6.42036	 -5.068362	
6.45363	 -5.075034	
6.4869	 -5.076367	
6.52016	 -5.073660	
6.55343	 -5.069222	
6.58669	 -5.068771	
6.61996	 -5.077954	
6.65323	 -5.091893	
6.68649	 -5.101219	
6.71976	 -5.103453	
6.75302	 -5.102444	
6.78629	 -5.104296	
6.81956	 -5.114751	
6.85282	 -5.134768	
6.88609	 -5.158208	
6.91935	 -5.175437	
6.95262	 -5.177577	
6.98589	 -5.160675	
7.01915	 -5.134523	
7.05242	 -5.121994	
7.08569	 -5.132343	
7.11895	 -5.146559	
7.15222	 -5.149689	
7.18548	 -5.152109	
7.21875	 -5.162451	
7.25202	 -5.172068	
7.28528	 -5.173838	
7.31855	 -5.171502	
7.35181	 -5.172080	
7.38508	 -5.178543	
7.41835	 -5.184376	
7.45161	 -5.178118	
7.48488	 -5.153914	
7.51815	 -5.115180	
7.55141	 -5.076186	
7.58468	 -5.056288	
7.61794	 -5.062290	
7.65121	 -5.078377	
7.68448	 -5.079030	
7.71774	 -5.055153	
7.75101	 -5.023058	
7.78427	 -5.004649	
7.81754	 -5.006812	
7.85081	 -5.023155	
7.88407	 -5.043575	
7.91734	 -5.055953	
7.9506	 -5.053635	
7.98387	 -5.045564	
8.01714	 -5.045427	
8.0504	 -5.053307	
8.08367	 -5.059017	
8.11694	 -5.060477	
8.1502	 -5.067214	
8.18347	 -5.083770	
8.21673	 -5.102931	
8.25	 -5.118500	
8.28327	 -5.126739	
8.31653	 -5.119516	
8.3498	 -5.101943	
8.38306	 -5.101260	
8.41633	 -5.132690	
8.4496	 -5.175452	
8.48286	 -5.200661	
8.51613	 -5.204898	
8.5494	 -5.200592	
8.58266	 -5.193449	
8.61593	 -5.185322	
8.64919	 -5.182261	
8.68246	 -5.184284	
8.71573	 -5.180729	
8.74899	 -5.171597	
8.78226	 -5.170304	
8.81552	 -5.178705	
8.84879	 -5.190786	
8.88206	 -5.205591	
8.91532	 -5.215545	
8.94859	 -5.208885	
8.98185	 -5.188701	
9.01512	 -5.170201	
9.04839	 -5.157388	
9.08165	 -5.137463	
9.11492	 -5.106761	
9.14819	 -5.080479	
9.18145	 -5.064890	
9.21472	 -5.049650	
9.24798	 -5.032181	
9.28125	 -5.021079	
9.31452	 -5.021245	
9.34778	 -5.028839	
9.38105	 -5.034173	
9.41431	 -5.032804	
9.44758	 -5.030625	
9.48085	 -5.030827	
9.51411	 -5.029502	
9.54738	 -5.026042	
9.58065	 -5.023237	
9.61391	 -5.021319	
9.64718	 -5.018534	
9.68044	 -5.013409	
9.71371	 -5.007310	
9.74698	 -5.002478	
9.78024	 -4.997428	
9.81351	 -4.993209	
9.84677	 -4.997423	
9.88004	 -5.011937	
9.91331	 -5.029087	
9.94657	 -5.045500	
9.97984	 -5.063890	
10.0131	 -5.082391	
10.0464	 -5.096810	
10.0796	 -5.108370	
10.1129	 -5.120602	
10.1462	 -5.130877	
10.1794	 -5.134832	
10.2127	 -5.140524	
10.246	 -5.156133	
10.2792	 -5.168340	
10.3125	 -5.163991	
10.3458	 -5.154479	
10.379	 -5.153394	
10.4123	 -5.159555	
10.4456	 -5.169881	
10.4788	 -5.184081	
10.5121	 -5.198947	
10.5454	 -5.203867	
10.5786	 -5.185856	
10.6119	 -5.146904	
